<svg preserveAspectRatio="xMidYMid meet" data-bbox="0.754 1 19.143 22" xmlns="http://www.w3.org/2000/svg" viewBox="0 0 21 24" height="24" width="21" data-type="ugc" role="presentation" aria-hidden="true" aria-label="">
    <g>
        <path stroke-width=".6" stroke="#000000" fill="#000000" d="M11.59 1C7.01 1 3.28 4.723 3.28 9.308a8.266 8.266 0 0 0 2.9 6.29l-5.283 6.37a.635.635 0 0 0 .082.887.61.61 0 0 0 .403.145.623.623 0 0 0 .484-.226l5.333-6.428a8.255 8.255 0 0 0 4.39 1.27c4.579 0 8.308-3.723 8.308-8.308S16.167 1 11.59 1Zm0 15.352c-3.888 0-7.051-3.163-7.051-7.05s3.163-7.044 7.05-7.044 7.05 3.163 7.05 7.05-3.163 7.05-7.05 7.05v-.006Z"></path>
    </g>
</svg>